# This file uses centimeters as units for non-parametric coordinates.

v 0.270598 -0.923880 -0.270598
v 0.000000 -0.923880 -0.382683
v -0.270598 -0.923880 -0.270598
v -0.382683 -0.923880 0.000000
v -0.270598 -0.923880 0.270598
v 0.000000 -0.923880 0.382683
v 0.270598 -0.923880 0.270598
v 0.382683 -0.923880 0.000000
v 0.500000 -0.707107 -0.500000
v 0.000000 -0.707107 -0.707107
v -0.500000 -0.707107 -0.500000
v -0.707107 -0.707107 0.000000
v -0.500000 -0.707107 0.500000
v 0.000000 -0.707107 0.707107
v 0.500000 -0.707107 0.500000
v 0.707107 -0.707107 0.000000
v 0.653281 -0.382683 -0.653281
v 0.000000 -0.382683 -0.923879
v -0.653281 -0.382683 -0.653281
v -0.923879 -0.382683 0.000000
v -0.653281 -0.382683 0.653281
v 0.000000 -0.382683 0.923879
v 0.653281 -0.382683 0.653281
v 0.923880 -0.382683 0.000000
v 0.707107 0.000000 -0.707107
v 0.000000 0.000000 -1.000000
v -0.707107 0.000000 -0.707107
v -1.000000 0.000000 0.000000
v -0.707107 0.000000 0.707107
v 0.000000 0.000000 1.000000
v 0.707107 0.000000 0.707107
v 1.000000 0.000000 0.000000
v 0.653281 0.382683 -0.653281
v 0.000000 0.382683 -0.923879
v -0.653281 0.382683 -0.653281
v -0.923879 0.382683 0.000000
v -0.653281 0.382683 0.653281
v 0.000000 0.382683 0.923879
v 0.653281 0.382683 0.653281
v 0.923880 0.382683 0.000000
v 0.500000 0.707107 -0.500000
v 0.000000 0.707107 -0.707107
v -0.500000 0.707107 -0.500000
v -0.707107 0.707107 0.000000
v -0.500000 0.707107 0.500000
v 0.000000 0.707107 0.707107
v 0.500000 0.707107 0.500000
v 0.707107 0.707107 0.000000
v 0.270598 0.923880 -0.270598
v 0.000000 0.923880 -0.382683
v -0.270598 0.923880 -0.270598
v -0.382683 0.923880 0.000000
v -0.270598 0.923880 0.270598
v 0.000000 0.923880 0.382683
v 0.270598 0.923880 0.270598
v 0.382683 0.923880 0.000000
v 0.000000 -1.000000 0.000000
v 0.000000 1.000000 0.000000
vt 0.000000 0.125000
vt 0.125000 0.125000
vt 0.250000 0.125000
vt 0.375000 0.125000
vt 0.500000 0.125000
vt 0.625000 0.125000
vt 0.750000 0.125000
vt 0.875000 0.125000
vt 1.000000 0.125000
vt 0.000000 0.250000
vt 0.125000 0.250000
vt 0.250000 0.250000
vt 0.375000 0.250000
vt 0.500000 0.250000
vt 0.625000 0.250000
vt 0.750000 0.250000
vt 0.875000 0.250000
vt 1.000000 0.250000
vt 0.000000 0.375000
vt 0.125000 0.375000
vt 0.250000 0.375000
vt 0.375000 0.375000
vt 0.500000 0.375000
vt 0.625000 0.375000
vt 0.750000 0.375000
vt 0.875000 0.375000
vt 1.000000 0.375000
vt 0.000000 0.500000
vt 0.125000 0.500000
vt 0.250000 0.500000
vt 0.375000 0.500000
vt 0.500000 0.500000
vt 0.625000 0.500000
vt 0.750000 0.500000
vt 0.875000 0.500000
vt 1.000000 0.500000
vt 0.000000 0.625000
vt 0.125000 0.625000
vt 0.250000 0.625000
vt 0.375000 0.625000
vt 0.500000 0.625000
vt 0.625000 0.625000
vt 0.750000 0.625000
vt 0.875000 0.625000
vt 1.000000 0.625000
vt 0.000000 0.750000
vt 0.125000 0.750000
vt 0.250000 0.750000
vt 0.375000 0.750000
vt 0.500000 0.750000
vt 0.625000 0.750000
vt 0.750000 0.750000
vt 0.875000 0.750000
vt 1.000000 0.750000
vt 0.000000 0.875000
vt 0.125000 0.875000
vt 0.250000 0.875000
vt 0.375000 0.875000
vt 0.500000 0.875000
vt 0.625000 0.875000
vt 0.750000 0.875000
vt 0.875000 0.875000
vt 1.000000 0.875000
vt 0.062500 0.000000
vt 0.187500 0.000000
vt 0.312500 0.000000
vt 0.437500 0.000000
vt 0.562500 0.000000
vt 0.687500 0.000000
vt 0.812500 0.000000
vt 0.937500 0.000000
vt 0.062500 1.000000
vt 0.187500 1.000000
vt 0.312500 1.000000
vt 0.437500 1.000000
vt 0.562500 1.000000
vt 0.687500 1.000000
vt 0.812500 1.000000
vt 0.937500 1.000000
vn 0.224263 -0.810291 -0.541420
vn 0.224263 -0.810291 -0.541419
vn 0.224263 -0.810291 -0.541419
vn 0.224263 -0.810291 -0.541419
vn -0.224263 -0.810291 -0.541419
vn -0.224263 -0.810291 -0.541419
vn -0.224263 -0.810291 -0.541419
vn -0.224263 -0.810291 -0.541419
vn -0.541419 -0.810291 -0.224263
vn -0.541419 -0.810291 -0.224263
vn -0.541419 -0.810291 -0.224263
vn -0.541419 -0.810291 -0.224263
vn -0.541419 -0.810291 0.224263
vn -0.541419 -0.810291 0.224263
vn -0.541419 -0.810291 0.224263
vn -0.541419 -0.810291 0.224263
vn -0.224263 -0.810291 0.541420
vn -0.224263 -0.810291 0.541419
vn -0.224263 -0.810291 0.541419
vn -0.224263 -0.810291 0.541419
vn 0.224263 -0.810291 0.541419
vn 0.224263 -0.810291 0.541419
vn 0.224263 -0.810291 0.541419
vn 0.224263 -0.810291 0.541419
vn 0.541419 -0.810291 0.224263
vn 0.541419 -0.810291 0.224263
vn 0.541419 -0.810291 0.224263
vn 0.541419 -0.810291 0.224263
vn 0.541419 -0.810291 -0.224263
vn 0.541419 -0.810291 -0.224263
vn 0.541419 -0.810291 -0.224263
vn 0.541419 -0.810291 -0.224263
vn 0.325634 -0.525289 -0.786151
vn 0.325635 -0.525289 -0.786151
vn 0.325634 -0.525289 -0.786151
vn 0.325635 -0.525289 -0.786151
vn -0.325634 -0.525289 -0.786151
vn -0.325634 -0.525289 -0.786151
vn -0.325634 -0.525289 -0.786151
vn -0.325635 -0.525289 -0.786151
vn -0.786151 -0.525289 -0.325635
vn -0.786151 -0.525289 -0.325634
vn -0.786151 -0.525289 -0.325634
vn -0.786151 -0.525289 -0.325634
vn -0.786151 -0.525289 0.325634
vn -0.786151 -0.525289 0.325634
vn -0.786151 -0.525289 0.325634
vn -0.786151 -0.525289 0.325634
vn -0.325634 -0.525289 0.786151
vn -0.325634 -0.525289 0.786151
vn -0.325634 -0.525289 0.786151
vn -0.325634 -0.525289 0.786151
vn 0.325634 -0.525289 0.786151
vn 0.325634 -0.525289 0.786151
vn 0.325634 -0.525289 0.786151
vn 0.325634 -0.525289 0.786151
vn 0.786151 -0.525290 0.325634
vn 0.786151 -0.525289 0.325635
vn 0.786151 -0.525289 0.325634
vn 0.786151 -0.525289 0.325634
vn 0.786151 -0.525289 -0.325635
vn 0.786151 -0.525289 -0.325635
vn 0.786151 -0.525289 -0.325635
vn 0.786151 -0.525289 -0.325635
vn 0.376381 -0.180744 -0.908663
vn 0.376381 -0.180744 -0.908663
vn 0.376381 -0.180744 -0.908663
vn 0.376381 -0.180744 -0.908663
vn -0.376381 -0.180744 -0.908663
vn -0.376381 -0.180744 -0.908663
vn -0.376381 -0.180744 -0.908663
vn -0.376381 -0.180744 -0.908663
vn -0.908663 -0.180744 -0.376381
vn -0.908663 -0.180744 -0.376381
vn -0.908663 -0.180744 -0.376381
vn -0.908663 -0.180744 -0.376381
vn -0.908663 -0.180744 0.376381
vn -0.908663 -0.180744 0.376381
vn -0.908663 -0.180744 0.376381
vn -0.908663 -0.180744 0.376381
vn -0.376381 -0.180744 0.908663
vn -0.376381 -0.180744 0.908663
vn -0.376381 -0.180744 0.908663
vn -0.376381 -0.180744 0.908663
vn 0.376381 -0.180744 0.908663
vn 0.376381 -0.180744 0.908663
vn 0.376381 -0.180744 0.908663
vn 0.376381 -0.180744 0.908663
vn 0.908663 -0.180745 0.376381
vn 0.908663 -0.180745 0.376381
vn 0.908663 -0.180745 0.376381
vn 0.908663 -0.180745 0.376381
vn 0.908663 -0.180745 -0.376381
vn 0.908663 -0.180744 -0.376381
vn 0.908663 -0.180745 -0.376381
vn 0.908663 -0.180744 -0.376381
vn 0.376381 0.180744 -0.908663
vn 0.376381 0.180744 -0.908663
vn 0.376381 0.180744 -0.908663
vn 0.376381 0.180744 -0.908663
vn -0.376381 0.180744 -0.908663
vn -0.376381 0.180744 -0.908663
vn -0.376381 0.180744 -0.908663
vn -0.376381 0.180744 -0.908663
vn -0.908663 0.180744 -0.376381
vn -0.908663 0.180744 -0.376381
vn -0.908663 0.180744 -0.376381
vn -0.908663 0.180744 -0.376381
vn -0.908663 0.180744 0.376381
vn -0.908663 0.180744 0.376381
vn -0.908663 0.180744 0.376381
vn -0.908663 0.180744 0.376381
vn -0.376381 0.180744 0.908663
vn -0.376381 0.180744 0.908663
vn -0.376381 0.180744 0.908663
vn -0.376381 0.180744 0.908663
vn 0.376381 0.180744 0.908663
vn 0.376381 0.180744 0.908663
vn 0.376381 0.180744 0.908663
vn 0.376381 0.180744 0.908663
vn 0.908663 0.180745 0.376381
vn 0.908663 0.180745 0.376381
vn 0.908663 0.180745 0.376381
vn 0.908663 0.180745 0.376381
vn 0.908663 0.180744 -0.376381
vn 0.908663 0.180744 -0.376381
vn 0.908663 0.180744 -0.376381
vn 0.908663 0.180745 -0.376381
vn 0.325635 0.525289 -0.786151
vn 0.325634 0.525289 -0.786151
vn 0.325635 0.525289 -0.786151
vn 0.325634 0.525289 -0.786151
vn -0.325635 0.525289 -0.786151
vn -0.325634 0.525289 -0.786151
vn -0.325634 0.525289 -0.786151
vn -0.325634 0.525289 -0.786151
vn -0.786151 0.525289 -0.325634
vn -0.786151 0.525289 -0.325634
vn -0.786151 0.525289 -0.325634
vn -0.786151 0.525289 -0.325634
vn -0.786151 0.525289 0.325634
vn -0.786151 0.525289 0.325634
vn -0.786151 0.525289 0.325634
vn -0.786151 0.525289 0.325635
vn -0.325635 0.525289 0.786151
vn -0.325634 0.525289 0.786151
vn -0.325635 0.525289 0.786151
vn -0.325634 0.525289 0.786151
vn 0.325634 0.525289 0.786151
vn 0.325634 0.525289 0.786151
vn 0.325634 0.525289 0.786151
vn 0.325634 0.525289 0.786151
vn 0.786151 0.525289 0.325634
vn 0.786151 0.525289 0.325634
vn 0.786151 0.525289 0.325634
vn 0.786151 0.525289 0.325634
vn 0.786151 0.525289 -0.325635
vn 0.786151 0.525289 -0.325635
vn 0.786151 0.525289 -0.325635
vn 0.786151 0.525289 -0.325635
vn 0.224263 0.810291 -0.541419
vn 0.224263 0.810291 -0.541419
vn 0.224263 0.810291 -0.541419
vn 0.224263 0.810291 -0.541419
vn -0.224263 0.810291 -0.541419
vn -0.224263 0.810291 -0.541419
vn -0.224263 0.810291 -0.541419
vn -0.224263 0.810291 -0.541420
vn -0.541419 0.810291 -0.224263
vn -0.541419 0.810291 -0.224263
vn -0.541419 0.810291 -0.224263
vn -0.541419 0.810291 -0.224263
vn -0.541419 0.810291 0.224263
vn -0.541419 0.810291 0.224263
vn -0.541419 0.810291 0.224263
vn -0.541419 0.810291 0.224263
vn -0.224263 0.810291 0.541419
vn -0.224263 0.810291 0.541419
vn -0.224263 0.810291 0.541419
vn -0.224263 0.810291 0.541419
vn 0.224263 0.810291 0.541419
vn 0.224263 0.810291 0.541419
vn 0.224263 0.810291 0.541419
vn 0.224263 0.810291 0.541419
vn 0.541419 0.810291 0.224263
vn 0.541419 0.810291 0.224263
vn 0.541419 0.810291 0.224263
vn 0.541419 0.810291 0.224263
vn 0.541419 0.810291 -0.224263
vn 0.541419 0.810291 -0.224263
vn 0.541419 0.810291 -0.224263
vn 0.541419 0.810291 -0.224263
vn 0.080546 -0.977599 -0.194457
vn 0.080547 -0.977599 -0.194457
vn 0.080547 -0.977599 -0.194457
vn -0.080547 -0.977599 -0.194457
vn -0.080546 -0.977599 -0.194457
vn -0.080547 -0.977599 -0.194457
vn -0.194457 -0.977599 -0.080546
vn -0.194457 -0.977599 -0.080546
vn -0.194457 -0.977599 -0.080546
vn -0.194457 -0.977599 0.080546
vn -0.194457 -0.977599 0.080546
vn -0.194457 -0.977599 0.080546
vn -0.080547 -0.977599 0.194457
vn -0.080547 -0.977599 0.194457
vn -0.080547 -0.977599 0.194456
vn 0.080547 -0.977599 0.194457
vn 0.080547 -0.977599 0.194457
vn 0.080547 -0.977599 0.194456
vn 0.194457 -0.977599 0.080546
vn 0.194457 -0.977599 0.080546
vn 0.194457 -0.977599 0.080546
vn 0.194457 -0.977599 -0.080546
vn 0.194457 -0.977599 -0.080546
vn 0.194457 -0.977599 -0.080546
vn 0.080547 0.977599 -0.194457
vn 0.080546 0.977599 -0.194457
vn 0.080547 0.977599 -0.194457
vn -0.080546 0.977599 -0.194457
vn -0.080547 0.977599 -0.194457
vn -0.080547 0.977599 -0.194457
vn -0.194457 0.977599 -0.080546
vn -0.194457 0.977599 -0.080546
vn -0.194457 0.977599 -0.080546
vn -0.194457 0.977599 0.080546
vn -0.194457 0.977599 0.080546
vn -0.194457 0.977599 0.080546
vn -0.080547 0.977599 0.194457
vn -0.080547 0.977599 0.194457
vn -0.080547 0.977599 0.194456
vn 0.080547 0.977599 0.194457
vn 0.080547 0.977599 0.194457
vn 0.080547 0.977599 0.194456
vn 0.194457 0.977599 0.080546
vn 0.194457 0.977599 0.080546
vn 0.194457 0.977599 0.080546
vn 0.194457 0.977599 -0.080546
vn 0.194457 0.977599 -0.080546
vn 0.194457 0.977599 -0.080546
f 1/1/1 2/2/2 9/10/3
f 9/10/3 2/2/2 10/11/4
f 2/2/5 3/3/6 10/11/7
f 10/11/7 3/3/6 11/12/8
f 3/3/9 4/4/10 11/12/11
f 11/12/11 4/4/10 12/13/12
f 4/4/13 5/5/14 12/13/15
f 12/13/15 5/5/14 13/14/16
f 5/5/17 6/6/18 13/14/19
f 13/14/19 6/6/18 14/15/20
f 6/6/21 7/7/22 14/15/23
f 14/15/23 7/7/22 15/16/24
f 7/7/25 8/8/26 15/16/27
f 15/16/27 8/8/26 16/17/28
f 8/8/29 1/9/30 16/17/31
f 16/17/31 1/9/30 9/18/32
f 9/10/33 10/11/34 17/19/35
f 17/19/35 10/11/34 18/20/36
f 10/11/37 11/12/38 18/20/39
f 18/20/39 11/12/38 19/21/40
f 11/12/41 12/13/42 19/21/43
f 19/21/43 12/13/42 20/22/44
f 12/13/45 13/14/46 20/22/47
f 20/22/47 13/14/46 21/23/48
f 13/14/49 14/15/50 21/23/51
f 21/23/51 14/15/50 22/24/52
f 14/15/53 15/16/54 22/24/55
f 22/24/55 15/16/54 23/25/56
f 15/16/57 16/17/58 23/25/59
f 23/25/59 16/17/58 24/26/60
f 16/17/61 9/18/62 24/26/63
f 24/26/63 9/18/62 17/27/64
f 17/19/65 18/20/66 25/28/67
f 25/28/67 18/20/66 26/29/68
f 18/20/69 19/21/70 26/29/71
f 26/29/71 19/21/70 27/30/72
f 19/21/73 20/22/74 27/30/75
f 27/30/75 20/22/74 28/31/76
f 20/22/77 21/23/78 28/31/79
f 28/31/79 21/23/78 29/32/80
f 21/23/81 22/24/82 29/32/83
f 29/32/83 22/24/82 30/33/84
f 22/24/85 23/25/86 30/33/87
f 30/33/87 23/25/86 31/34/88
f 23/25/89 24/26/90 31/34/91
f 31/34/91 24/26/90 32/35/92
f 24/26/93 17/27/94 32/35/95
f 32/35/95 17/27/94 25/36/96
f 25/28/97 26/29/98 33/37/99
f 33/37/99 26/29/98 34/38/100
f 26/29/101 27/30/102 34/38/103
f 34/38/103 27/30/102 35/39/104
f 27/30/105 28/31/106 35/39/107
f 35/39/107 28/31/106 36/40/108
f 28/31/109 29/32/110 36/40/111
f 36/40/111 29/32/110 37/41/112
f 29/32/113 30/33/114 37/41/115
f 37/41/115 30/33/114 38/42/116
f 30/33/117 31/34/118 38/42/119
f 38/42/119 31/34/118 39/43/120
f 31/34/121 32/35/122 39/43/123
f 39/43/123 32/35/122 40/44/124
f 32/35/125 25/36/126 40/44/127
f 40/44/127 25/36/126 33/45/128
f 33/37/129 34/38/130 41/46/131
f 41/46/131 34/38/130 42/47/132
f 34/38/133 35/39/134 42/47/135
f 42/47/135 35/39/134 43/48/136
f 35/39/137 36/40/138 43/48/139
f 43/48/139 36/40/138 44/49/140
f 36/40/141 37/41/142 44/49/143
f 44/49/143 37/41/142 45/50/144
f 37/41/145 38/42/146 45/50/147
f 45/50/147 38/42/146 46/51/148
f 38/42/149 39/43/150 46/51/151
f 46/51/151 39/43/150 47/52/152
f 39/43/153 40/44/154 47/52/155
f 47/52/155 40/44/154 48/53/156
f 40/44/157 33/45/158 48/53/159
f 48/53/159 33/45/158 41/54/160
f 41/46/161 42/47/162 49/55/163
f 49/55/163 42/47/162 50/56/164
f 42/47/165 43/48/166 50/56/167
f 50/56/167 43/48/166 51/57/168
f 43/48/169 44/49/170 51/57/171
f 51/57/171 44/49/170 52/58/172
f 44/49/173 45/50/174 52/58/175
f 52/58/175 45/50/174 53/59/176
f 45/50/177 46/51/178 53/59/179
f 53/59/179 46/51/178 54/60/180
f 46/51/181 47/52/182 54/60/183
f 54/60/183 47/52/182 55/61/184
f 47/52/185 48/53/186 55/61/187
f 55/61/187 48/53/186 56/62/188
f 48/53/189 41/54/190 56/62/191
f 56/62/191 41/54/190 49/63/192
f 2/2/193 1/1/194 57/64/195
f 3/3/196 2/2/197 57/65/198
f 4/4/199 3/3/200 57/66/201
f 5/5/202 4/4/203 57/67/204
f 6/6/205 5/5/206 57/68/207
f 7/7/208 6/6/209 57/69/210
f 8/8/211 7/7/212 57/70/213
f 1/9/214 8/8/215 57/71/216
f 49/55/217 50/56/218 58/72/219
f 50/56/220 51/57/221 58/73/222
f 51/57/223 52/58/224 58/74/225
f 52/58/226 53/59/227 58/75/228
f 53/59/229 54/60/230 58/76/231
f 54/60/232 55/61/233 58/77/234
f 55/61/235 56/62/236 58/78/237
f 56/62/238 49/63/239 58/79/240
